<mxfile host="app.diagrams.net" agent="Mozilla/5.0 (Windows NT 10.0; Win64; x64) AppleWebKit/537.36 (KHTML, like Gecko) Chrome/131.0.0.0 Safari/537.36" version="26.0.5">
  <diagram name="Page-1" id="12DdwPp8LPdr7a4C4ZM9">
    <mxGraphModel dx="3176" dy="1784" grid="1" gridSize="10" guides="1" tooltips="1" connect="1" arrows="1" fold="1" page="1" pageScale="1" pageWidth="827" pageHeight="1169" math="0" shadow="0">
      <root>
        <mxCell id="0" />
        <mxCell id="1" parent="0" />
        <mxCell id="tQf4Gl_u13_g4NJHGhRt-4" value="" style="whiteSpace=wrap;html=1;" vertex="1" parent="1">
          <mxGeometry x="340" y="480" width="1210" height="2000" as="geometry" />
        </mxCell>
        <mxCell id="tQf4Gl_u13_g4NJHGhRt-6" value="" style="swimlane;startSize=0;" vertex="1" parent="1">
          <mxGeometry x="340" y="480" width="200" height="40" as="geometry" />
        </mxCell>
        <mxCell id="tQf4Gl_u13_g4NJHGhRt-7" value="&lt;h1 style=&quot;box-sizing: border-box; border: 0px solid; --tw-border-spacing-x: 0; --tw-border-spacing-y: 0; --tw-translate-x: 0; --tw-translate-y: 0; --tw-rotate: 0; --tw-skew-x: 0; --tw-skew-y: 0; --tw-scale-x: 1; --tw-scale-y: 1; --tw-pan-x: ; --tw-pan-y: ; --tw-pinch-zoom: ; --tw-scroll-snap-strictness: proximity; --tw-gradient-from-position: ; --tw-gradient-via-position: ; --tw-gradient-to-position: ; --tw-ordinal: ; --tw-slashed-zero: ; --tw-numeric-figure: ; --tw-numeric-spacing: ; --tw-numeric-fraction: ; --tw-ring-inset: ; --tw-ring-offset-width: 0px; --tw-ring-offset-color: #fff; --tw-ring-color: rgba(59,130,246,.5); --tw-ring-offset-shadow: 0 0 #0000; --tw-ring-shadow: 0 0 #0000; --tw-shadow: 0 0 #0000; --tw-shadow-colored: 0 0 #0000; --tw-blur: ; --tw-brightness: ; --tw-contrast: ; --tw-grayscale: ; --tw-hue-rotate: ; --tw-invert: ; --tw-saturate: ; --tw-sepia: ; --tw-drop-shadow: ; --tw-backdrop-blur: ; --tw-backdrop-brightness: ; --tw-backdrop-contrast: ; --tw-backdrop-grayscale: ; --tw-backdrop-hue-rotate: ; --tw-backdrop-invert: ; --tw-backdrop-opacity: ; --tw-backdrop-saturate: ; --tw-backdrop-sepia: ; --tw-contain-size: ; --tw-contain-layout: ; --tw-contain-paint: ; --tw-contain-style: ; font-size: 1.5rem; margin: 0px; font-family: &amp;quot;Nunito Sans&amp;quot;, sans-serif; line-height: 2rem; color: var(--text-color,#000000); text-align: start; text-wrap-mode: wrap; background-color: rgb(255, 255, 255);&quot; class=&quot;sc-6a4c5dd9-0 dXTcni&quot;&gt;Youdemy&lt;/h1&gt;" style="text;html=1;align=center;verticalAlign=middle;resizable=0;points=[];autosize=1;strokeColor=none;fillColor=none;" vertex="1" parent="tQf4Gl_u13_g4NJHGhRt-6">
          <mxGeometry x="29" y="-5" width="130" height="50" as="geometry" />
        </mxCell>
        <mxCell id="tQf4Gl_u13_g4NJHGhRt-131" style="edgeStyle=orthogonalEdgeStyle;rounded=0;orthogonalLoop=1;jettySize=auto;html=1;" edge="1" parent="1" source="tQf4Gl_u13_g4NJHGhRt-12" target="tQf4Gl_u13_g4NJHGhRt-13">
          <mxGeometry relative="1" as="geometry" />
        </mxCell>
        <mxCell id="tQf4Gl_u13_g4NJHGhRt-12" value="&lt;font style=&quot;font-size: 22px;&quot;&gt;Teacher&lt;/font&gt;" style="shape=umlActor;verticalLabelPosition=bottom;verticalAlign=top;html=1;outlineConnect=0;" vertex="1" parent="1">
          <mxGeometry x="130" y="1250" width="70" height="116" as="geometry" />
        </mxCell>
        <mxCell id="tQf4Gl_u13_g4NJHGhRt-132" style="edgeStyle=orthogonalEdgeStyle;rounded=0;orthogonalLoop=1;jettySize=auto;html=1;" edge="1" parent="1" source="tQf4Gl_u13_g4NJHGhRt-13" target="tQf4Gl_u13_g4NJHGhRt-97">
          <mxGeometry relative="1" as="geometry" />
        </mxCell>
        <mxCell id="tQf4Gl_u13_g4NJHGhRt-13" value="&lt;font style=&quot;font-size: 22px;&quot;&gt;Student&lt;/font&gt;" style="shape=umlActor;verticalLabelPosition=bottom;verticalAlign=top;html=1;outlineConnect=0;" vertex="1" parent="1">
          <mxGeometry x="130" y="920" width="70" height="116" as="geometry" />
        </mxCell>
        <mxCell id="tQf4Gl_u13_g4NJHGhRt-26" value="&lt;font style=&quot;font-size: 36px;&quot;&gt;Access &#39;My Courses&lt;/font&gt;" style="ellipse;whiteSpace=wrap;html=1;" vertex="1" parent="1">
          <mxGeometry x="410" y="1049" width="310" height="91" as="geometry" />
        </mxCell>
        <mxCell id="tQf4Gl_u13_g4NJHGhRt-27" value="&lt;font style=&quot;font-size: 36px;&quot;&gt;Enroll in Courses&lt;/font&gt;" style="ellipse;whiteSpace=wrap;html=1;" vertex="1" parent="1">
          <mxGeometry x="810" y="1049" width="310" height="91" as="geometry" />
        </mxCell>
        <mxCell id="tQf4Gl_u13_g4NJHGhRt-28" value="&lt;font style=&quot;font-size: 36px;&quot;&gt;View Catalog&lt;/font&gt;" style="ellipse;whiteSpace=wrap;html=1;" vertex="1" parent="1">
          <mxGeometry x="1210" y="1057.5" width="310" height="90" as="geometry" />
        </mxCell>
        <mxCell id="tQf4Gl_u13_g4NJHGhRt-29" style="edgeStyle=orthogonalEdgeStyle;rounded=0;orthogonalLoop=1;jettySize=auto;html=1;exitX=0.5;exitY=1;exitDx=0;exitDy=0;" edge="1" parent="1" source="tQf4Gl_u13_g4NJHGhRt-27" target="tQf4Gl_u13_g4NJHGhRt-27">
          <mxGeometry relative="1" as="geometry" />
        </mxCell>
        <mxCell id="tQf4Gl_u13_g4NJHGhRt-39" value="&lt;span style=&quot;font-size: 36px;&quot;&gt;View page Student&amp;nbsp;&lt;/span&gt;" style="ellipse;whiteSpace=wrap;html=1;" vertex="1" parent="1">
          <mxGeometry x="810" y="910" width="310" height="90" as="geometry" />
        </mxCell>
        <mxCell id="tQf4Gl_u13_g4NJHGhRt-56" style="edgeStyle=orthogonalEdgeStyle;rounded=0;orthogonalLoop=1;jettySize=auto;html=1;exitX=0.5;exitY=1;exitDx=0;exitDy=0;" edge="1" parent="1">
          <mxGeometry relative="1" as="geometry">
            <mxPoint x="975" y="1150" as="sourcePoint" />
            <mxPoint x="975" y="1150" as="targetPoint" />
          </mxGeometry>
        </mxCell>
        <mxCell id="tQf4Gl_u13_g4NJHGhRt-58" value="&lt;font style=&quot;font-size: 36px;&quot;&gt;Add Courses&lt;/font&gt;" style="ellipse;whiteSpace=wrap;html=1;" vertex="1" parent="1">
          <mxGeometry x="400" y="1379" width="310" height="91" as="geometry" />
        </mxCell>
        <mxCell id="tQf4Gl_u13_g4NJHGhRt-59" value="&lt;font style=&quot;font-size: 36px;&quot;&gt;Manage Courses&lt;/font&gt;" style="ellipse;whiteSpace=wrap;html=1;" vertex="1" parent="1">
          <mxGeometry x="800" y="1379" width="310" height="91" as="geometry" />
        </mxCell>
        <mxCell id="tQf4Gl_u13_g4NJHGhRt-60" value="&lt;font style=&quot;font-size: 36px;&quot;&gt;View Statistics&lt;/font&gt;" style="ellipse;whiteSpace=wrap;html=1;" vertex="1" parent="1">
          <mxGeometry x="1200" y="1387.5" width="310" height="92.5" as="geometry" />
        </mxCell>
        <mxCell id="tQf4Gl_u13_g4NJHGhRt-61" style="edgeStyle=orthogonalEdgeStyle;rounded=0;orthogonalLoop=1;jettySize=auto;html=1;exitX=0.5;exitY=1;exitDx=0;exitDy=0;" edge="1" source="tQf4Gl_u13_g4NJHGhRt-59" target="tQf4Gl_u13_g4NJHGhRt-59" parent="1">
          <mxGeometry relative="1" as="geometry" />
        </mxCell>
        <mxCell id="tQf4Gl_u13_g4NJHGhRt-62" value="&lt;font style=&quot;font-size: 36px;&quot;&gt;View page teacher&lt;/font&gt;" style="ellipse;whiteSpace=wrap;html=1;" vertex="1" parent="1">
          <mxGeometry x="800" y="1240" width="310" height="91" as="geometry" />
        </mxCell>
        <mxCell id="tQf4Gl_u13_g4NJHGhRt-63" style="edgeStyle=orthogonalEdgeStyle;rounded=0;orthogonalLoop=1;jettySize=auto;html=1;exitX=0.5;exitY=1;exitDx=0;exitDy=0;" edge="1" parent="1">
          <mxGeometry relative="1" as="geometry">
            <mxPoint x="945" y="1860" as="sourcePoint" />
            <mxPoint x="945" y="1860" as="targetPoint" />
          </mxGeometry>
        </mxCell>
        <mxCell id="tQf4Gl_u13_g4NJHGhRt-64" style="edgeStyle=orthogonalEdgeStyle;rounded=0;orthogonalLoop=1;jettySize=auto;html=1;exitX=0.5;exitY=1;exitDx=0;exitDy=0;" edge="1" parent="1">
          <mxGeometry relative="1" as="geometry">
            <mxPoint x="955" y="1870" as="sourcePoint" />
            <mxPoint x="955" y="1870" as="targetPoint" />
          </mxGeometry>
        </mxCell>
        <mxCell id="tQf4Gl_u13_g4NJHGhRt-73" value="" style="endArrow=classic;html=1;rounded=0;exitX=1;exitY=0.3333333333333333;exitDx=0;exitDy=0;exitPerimeter=0;entryX=0;entryY=0.5;entryDx=0;entryDy=0;" edge="1" parent="1" source="tQf4Gl_u13_g4NJHGhRt-13" target="tQf4Gl_u13_g4NJHGhRt-126">
          <mxGeometry width="50" height="50" relative="1" as="geometry">
            <mxPoint x="470" y="1030" as="sourcePoint" />
            <mxPoint x="520" y="980" as="targetPoint" />
          </mxGeometry>
        </mxCell>
        <mxCell id="tQf4Gl_u13_g4NJHGhRt-74" value="" style="endArrow=classic;html=1;rounded=0;exitX=0;exitY=1;exitDx=0;exitDy=0;entryX=0.5;entryY=0;entryDx=0;entryDy=0;strokeWidth=5;dashed=1;dashPattern=1 2;" edge="1" parent="1" source="tQf4Gl_u13_g4NJHGhRt-39" target="tQf4Gl_u13_g4NJHGhRt-26">
          <mxGeometry width="50" height="50" relative="1" as="geometry">
            <mxPoint x="590" y="1040" as="sourcePoint" />
            <mxPoint x="640" y="990" as="targetPoint" />
          </mxGeometry>
        </mxCell>
        <mxCell id="tQf4Gl_u13_g4NJHGhRt-75" value="" style="endArrow=classic;html=1;rounded=0;entryX=0.5;entryY=0;entryDx=0;entryDy=0;dashed=1;dashPattern=1 2;strokeWidth=5;" edge="1" parent="1" target="tQf4Gl_u13_g4NJHGhRt-27">
          <mxGeometry width="50" height="50" relative="1" as="geometry">
            <mxPoint x="965" y="1000" as="sourcePoint" />
            <mxPoint x="520" y="980" as="targetPoint" />
          </mxGeometry>
        </mxCell>
        <mxCell id="tQf4Gl_u13_g4NJHGhRt-76" value="" style="endArrow=classic;html=1;rounded=0;exitX=1;exitY=1;exitDx=0;exitDy=0;entryX=0.5;entryY=0;entryDx=0;entryDy=0;dashed=1;dashPattern=1 2;strokeWidth=5;" edge="1" parent="1" source="tQf4Gl_u13_g4NJHGhRt-39" target="tQf4Gl_u13_g4NJHGhRt-28">
          <mxGeometry width="50" height="50" relative="1" as="geometry">
            <mxPoint x="470" y="1030" as="sourcePoint" />
            <mxPoint x="520" y="980" as="targetPoint" />
          </mxGeometry>
        </mxCell>
        <mxCell id="tQf4Gl_u13_g4NJHGhRt-77" value="" style="endArrow=classic;html=1;rounded=0;exitX=1;exitY=0.3333333333333333;exitDx=0;exitDy=0;exitPerimeter=0;entryX=0;entryY=0.5;entryDx=0;entryDy=0;" edge="1" parent="1" source="tQf4Gl_u13_g4NJHGhRt-12" target="tQf4Gl_u13_g4NJHGhRt-62">
          <mxGeometry width="50" height="50" relative="1" as="geometry">
            <mxPoint x="1030" y="1160" as="sourcePoint" />
            <mxPoint x="1080" y="1110" as="targetPoint" />
          </mxGeometry>
        </mxCell>
        <mxCell id="tQf4Gl_u13_g4NJHGhRt-78" value="" style="endArrow=classic;html=1;rounded=0;entryX=0.5;entryY=0;entryDx=0;entryDy=0;exitX=0;exitY=1;exitDx=0;exitDy=0;strokeWidth=5;dashed=1;dashPattern=1 2;" edge="1" parent="1" source="tQf4Gl_u13_g4NJHGhRt-62" target="tQf4Gl_u13_g4NJHGhRt-58">
          <mxGeometry width="50" height="50" relative="1" as="geometry">
            <mxPoint x="1030" y="1160" as="sourcePoint" />
            <mxPoint x="1080" y="1110" as="targetPoint" />
          </mxGeometry>
        </mxCell>
        <mxCell id="tQf4Gl_u13_g4NJHGhRt-79" value="" style="endArrow=classic;html=1;rounded=0;entryX=0.5;entryY=0;entryDx=0;entryDy=0;dashed=1;dashPattern=1 2;strokeWidth=5;" edge="1" parent="1" target="tQf4Gl_u13_g4NJHGhRt-59">
          <mxGeometry width="50" height="50" relative="1" as="geometry">
            <mxPoint x="955" y="1340" as="sourcePoint" />
            <mxPoint x="955" y="1308.2893218813451" as="targetPoint" />
          </mxGeometry>
        </mxCell>
        <mxCell id="tQf4Gl_u13_g4NJHGhRt-80" value="" style="endArrow=classic;html=1;rounded=0;entryX=0.5;entryY=0;entryDx=0;entryDy=0;exitX=1;exitY=1;exitDx=0;exitDy=0;dashed=1;dashPattern=1 2;strokeWidth=5;" edge="1" parent="1" source="tQf4Gl_u13_g4NJHGhRt-62" target="tQf4Gl_u13_g4NJHGhRt-60">
          <mxGeometry width="50" height="50" relative="1" as="geometry">
            <mxPoint x="965" y="1350" as="sourcePoint" />
            <mxPoint x="965" y="1389" as="targetPoint" />
          </mxGeometry>
        </mxCell>
        <mxCell id="tQf4Gl_u13_g4NJHGhRt-97" value="&lt;font style=&quot;font-size: 22px;&quot;&gt;Visitor&lt;/font&gt;" style="shape=umlActor;verticalLabelPosition=bottom;verticalAlign=top;html=1;outlineConnect=0;" vertex="1" parent="1">
          <mxGeometry x="130" y="550" width="70" height="116" as="geometry" />
        </mxCell>
        <mxCell id="tQf4Gl_u13_g4NJHGhRt-98" value="&lt;font style=&quot;font-size: 36px;&quot;&gt;Create Account&lt;/font&gt;" style="ellipse;whiteSpace=wrap;html=1;" vertex="1" parent="1">
          <mxGeometry x="410" y="679" width="310" height="91" as="geometry" />
        </mxCell>
        <mxCell id="tQf4Gl_u13_g4NJHGhRt-99" value="&lt;font style=&quot;font-size: 36px;&quot;&gt;Search Courses&lt;/font&gt;" style="ellipse;whiteSpace=wrap;html=1;" vertex="1" parent="1">
          <mxGeometry x="810" y="679" width="310" height="91" as="geometry" />
        </mxCell>
        <mxCell id="tQf4Gl_u13_g4NJHGhRt-100" value="&lt;font style=&quot;font-size: 36px;&quot;&gt;Browse Courses&lt;/font&gt;" style="ellipse;whiteSpace=wrap;html=1;" vertex="1" parent="1">
          <mxGeometry x="1210" y="687.5" width="310" height="90" as="geometry" />
        </mxCell>
        <mxCell id="tQf4Gl_u13_g4NJHGhRt-101" style="edgeStyle=orthogonalEdgeStyle;rounded=0;orthogonalLoop=1;jettySize=auto;html=1;exitX=0.5;exitY=1;exitDx=0;exitDy=0;" edge="1" source="tQf4Gl_u13_g4NJHGhRt-99" target="tQf4Gl_u13_g4NJHGhRt-99" parent="1">
          <mxGeometry relative="1" as="geometry" />
        </mxCell>
        <mxCell id="tQf4Gl_u13_g4NJHGhRt-102" value="&lt;span style=&quot;font-size: 36px;&quot;&gt;View Home page&lt;/span&gt;" style="ellipse;whiteSpace=wrap;html=1;" vertex="1" parent="1">
          <mxGeometry x="810" y="540" width="310" height="91" as="geometry" />
        </mxCell>
        <mxCell id="tQf4Gl_u13_g4NJHGhRt-103" style="edgeStyle=orthogonalEdgeStyle;rounded=0;orthogonalLoop=1;jettySize=auto;html=1;exitX=0.5;exitY=1;exitDx=0;exitDy=0;" edge="1" parent="1">
          <mxGeometry relative="1" as="geometry">
            <mxPoint x="975" y="780" as="sourcePoint" />
            <mxPoint x="975" y="780" as="targetPoint" />
          </mxGeometry>
        </mxCell>
        <mxCell id="tQf4Gl_u13_g4NJHGhRt-104" value="" style="endArrow=classic;html=1;rounded=0;exitX=1;exitY=0.3333333333333333;exitDx=0;exitDy=0;exitPerimeter=0;entryX=0;entryY=0.5;entryDx=0;entryDy=0;" edge="1" source="tQf4Gl_u13_g4NJHGhRt-97" target="tQf4Gl_u13_g4NJHGhRt-102" parent="1">
          <mxGeometry width="50" height="50" relative="1" as="geometry">
            <mxPoint x="470" y="660" as="sourcePoint" />
            <mxPoint x="520" y="610" as="targetPoint" />
          </mxGeometry>
        </mxCell>
        <mxCell id="tQf4Gl_u13_g4NJHGhRt-105" value="" style="endArrow=classic;html=1;rounded=0;exitX=0;exitY=1;exitDx=0;exitDy=0;entryX=0.5;entryY=0;entryDx=0;entryDy=0;strokeWidth=5;dashed=1;dashPattern=1 2;" edge="1" source="tQf4Gl_u13_g4NJHGhRt-102" target="tQf4Gl_u13_g4NJHGhRt-98" parent="1">
          <mxGeometry width="50" height="50" relative="1" as="geometry">
            <mxPoint x="590" y="670" as="sourcePoint" />
            <mxPoint x="640" y="620" as="targetPoint" />
          </mxGeometry>
        </mxCell>
        <mxCell id="tQf4Gl_u13_g4NJHGhRt-106" value="" style="endArrow=classic;html=1;rounded=0;entryX=0.5;entryY=0;entryDx=0;entryDy=0;strokeWidth=5;dashed=1;" edge="1" target="tQf4Gl_u13_g4NJHGhRt-99" parent="1">
          <mxGeometry width="50" height="50" relative="1" as="geometry">
            <mxPoint x="965" y="630" as="sourcePoint" />
            <mxPoint x="520" y="610" as="targetPoint" />
          </mxGeometry>
        </mxCell>
        <mxCell id="tQf4Gl_u13_g4NJHGhRt-107" value="" style="endArrow=classic;html=1;rounded=0;exitX=1;exitY=1;exitDx=0;exitDy=0;entryX=0.5;entryY=0;entryDx=0;entryDy=0;dashed=1;dashPattern=1 2;targetPerimeterSpacing=14;strokeWidth=5;" edge="1" source="tQf4Gl_u13_g4NJHGhRt-102" target="tQf4Gl_u13_g4NJHGhRt-100" parent="1">
          <mxGeometry width="50" height="50" relative="1" as="geometry">
            <mxPoint x="470" y="660" as="sourcePoint" />
            <mxPoint x="520" y="610" as="targetPoint" />
          </mxGeometry>
        </mxCell>
        <mxCell id="tQf4Gl_u13_g4NJHGhRt-130" style="edgeStyle=orthogonalEdgeStyle;rounded=0;orthogonalLoop=1;jettySize=auto;html=1;exitX=0.5;exitY=0;exitDx=0;exitDy=0;exitPerimeter=0;" edge="1" parent="1" source="tQf4Gl_u13_g4NJHGhRt-114" target="tQf4Gl_u13_g4NJHGhRt-12">
          <mxGeometry relative="1" as="geometry" />
        </mxCell>
        <mxCell id="tQf4Gl_u13_g4NJHGhRt-114" value="&lt;font style=&quot;font-size: 22px;&quot;&gt;Administrator&lt;/font&gt;" style="shape=umlActor;verticalLabelPosition=bottom;verticalAlign=top;html=1;outlineConnect=0;" vertex="1" parent="1">
          <mxGeometry x="130" y="1640" width="70" height="116" as="geometry" />
        </mxCell>
        <mxCell id="tQf4Gl_u13_g4NJHGhRt-115" value="&lt;font style=&quot;font-size: 36px;&quot;&gt;View Platform Statistics&lt;/font&gt;" style="ellipse;whiteSpace=wrap;html=1;" vertex="1" parent="1">
          <mxGeometry x="350" y="1790" width="310" height="91" as="geometry" />
        </mxCell>
        <mxCell id="tQf4Gl_u13_g4NJHGhRt-116" value="&lt;font style=&quot;font-size: 36px;&quot;&gt;Manage Content&lt;/font&gt;" style="ellipse;whiteSpace=wrap;html=1;" vertex="1" parent="1">
          <mxGeometry x="560" y="1940" width="310" height="91" as="geometry" />
        </mxCell>
        <mxCell id="tQf4Gl_u13_g4NJHGhRt-117" value="&lt;font style=&quot;font-size: 36px;&quot;&gt;Manage Users&lt;/font&gt;" style="ellipse;whiteSpace=wrap;html=1;" vertex="1" parent="1">
          <mxGeometry x="1200" y="1777.5" width="310" height="90" as="geometry" />
        </mxCell>
        <mxCell id="tQf4Gl_u13_g4NJHGhRt-118" style="edgeStyle=orthogonalEdgeStyle;rounded=0;orthogonalLoop=1;jettySize=auto;html=1;exitX=0.5;exitY=1;exitDx=0;exitDy=0;" edge="1" source="tQf4Gl_u13_g4NJHGhRt-116" target="tQf4Gl_u13_g4NJHGhRt-116" parent="1">
          <mxGeometry relative="1" as="geometry" />
        </mxCell>
        <mxCell id="tQf4Gl_u13_g4NJHGhRt-119" value="&lt;font style=&quot;font-size: 36px;&quot;&gt;View page admin&lt;/font&gt;" style="ellipse;whiteSpace=wrap;html=1;" vertex="1" parent="1">
          <mxGeometry x="800" y="1630" width="310" height="91" as="geometry" />
        </mxCell>
        <mxCell id="tQf4Gl_u13_g4NJHGhRt-120" value="" style="endArrow=classic;html=1;rounded=0;exitX=1;exitY=0.3333333333333333;exitDx=0;exitDy=0;exitPerimeter=0;entryX=0;entryY=0.5;entryDx=0;entryDy=0;" edge="1" source="tQf4Gl_u13_g4NJHGhRt-114" target="tQf4Gl_u13_g4NJHGhRt-119" parent="1">
          <mxGeometry width="50" height="50" relative="1" as="geometry">
            <mxPoint x="1030" y="1550" as="sourcePoint" />
            <mxPoint x="1080" y="1500" as="targetPoint" />
          </mxGeometry>
        </mxCell>
        <mxCell id="tQf4Gl_u13_g4NJHGhRt-121" value="" style="endArrow=classic;html=1;rounded=0;entryX=0.5;entryY=0;entryDx=0;entryDy=0;exitX=0;exitY=1;exitDx=0;exitDy=0;strokeWidth=5;dashed=1;dashPattern=1 2;" edge="1" source="tQf4Gl_u13_g4NJHGhRt-119" target="tQf4Gl_u13_g4NJHGhRt-115" parent="1">
          <mxGeometry width="50" height="50" relative="1" as="geometry">
            <mxPoint x="1030" y="1550" as="sourcePoint" />
            <mxPoint x="1080" y="1500" as="targetPoint" />
          </mxGeometry>
        </mxCell>
        <mxCell id="tQf4Gl_u13_g4NJHGhRt-122" value="" style="endArrow=classic;html=1;rounded=0;entryX=0.5;entryY=0;entryDx=0;entryDy=0;dashed=1;dashPattern=1 2;strokeWidth=5;" edge="1" target="tQf4Gl_u13_g4NJHGhRt-116" parent="1">
          <mxGeometry width="50" height="50" relative="1" as="geometry">
            <mxPoint x="955" y="1730" as="sourcePoint" />
            <mxPoint x="955" y="1698.2893218813451" as="targetPoint" />
          </mxGeometry>
        </mxCell>
        <mxCell id="tQf4Gl_u13_g4NJHGhRt-123" value="" style="endArrow=classic;html=1;rounded=0;entryX=0.5;entryY=0;entryDx=0;entryDy=0;exitX=1;exitY=1;exitDx=0;exitDy=0;dashed=1;dashPattern=1 2;strokeWidth=5;" edge="1" source="tQf4Gl_u13_g4NJHGhRt-119" target="tQf4Gl_u13_g4NJHGhRt-117" parent="1">
          <mxGeometry width="50" height="50" relative="1" as="geometry">
            <mxPoint x="965" y="1740" as="sourcePoint" />
            <mxPoint x="965" y="1779" as="targetPoint" />
          </mxGeometry>
        </mxCell>
        <mxCell id="tQf4Gl_u13_g4NJHGhRt-124" value="&lt;font style=&quot;font-size: 36px;&quot;&gt;Validate Teacher Accounts&lt;/font&gt;" style="ellipse;whiteSpace=wrap;html=1;" vertex="1" parent="1">
          <mxGeometry x="1030" y="1940" width="310" height="91" as="geometry" />
        </mxCell>
        <mxCell id="tQf4Gl_u13_g4NJHGhRt-125" value="" style="endArrow=classic;html=1;rounded=0;entryX=0.5;entryY=0;entryDx=0;entryDy=0;exitX=0.5;exitY=1;exitDx=0;exitDy=0;strokeWidth=5;dashed=1;dashPattern=1 2;" edge="1" target="tQf4Gl_u13_g4NJHGhRt-124" parent="1" source="tQf4Gl_u13_g4NJHGhRt-119">
          <mxGeometry width="50" height="50" relative="1" as="geometry">
            <mxPoint x="1435" y="1890" as="sourcePoint" />
            <mxPoint x="1670" y="1683" as="targetPoint" />
          </mxGeometry>
        </mxCell>
        <mxCell id="tQf4Gl_u13_g4NJHGhRt-126" value="&lt;span style=&quot;font-size: 36px;&quot;&gt;login&lt;/span&gt;" style="ellipse;whiteSpace=wrap;html=1;" vertex="1" parent="1">
          <mxGeometry x="570" y="810" width="310" height="90" as="geometry" />
        </mxCell>
        <mxCell id="tQf4Gl_u13_g4NJHGhRt-128" value="" style="endArrow=classic;html=1;rounded=0;entryX=0.957;entryY=0.704;entryDx=0;entryDy=0;entryPerimeter=0;exitX=0.5;exitY=0;exitDx=0;exitDy=0;dashed=1;dashPattern=1 2;strokeWidth=5;" edge="1" parent="1" source="tQf4Gl_u13_g4NJHGhRt-39" target="tQf4Gl_u13_g4NJHGhRt-126">
          <mxGeometry width="50" height="50" relative="1" as="geometry">
            <mxPoint x="750" y="1110" as="sourcePoint" />
            <mxPoint x="800" y="1060" as="targetPoint" />
          </mxGeometry>
        </mxCell>
      </root>
    </mxGraphModel>
  </diagram>
</mxfile>
